<?xml version="1.0" encoding="UTF-8"?>
<!DOCTYPE svg PUBLIC "-//W3C//DTD SVG 1.1//EN" "http://www.w3.org/Graphics/SVG/1.1/DTD/svg11.dtd">
<!-- Creator: CorelDRAW -->
<svg xmlns="http://www.w3.org/2000/svg" xml:space="preserve" width="7.11111in" height="7.11111in" version="1.1" style="shape-rendering:geometricPrecision; text-rendering:geometricPrecision; image-rendering:optimizeQuality; fill-rule:evenodd; clip-rule:evenodd"
viewBox="0 0 7111 7111"
 xmlns:xlink="http://www.w3.org/1999/xlink">
 <defs>
  <style type="text/css">
   <![CDATA[
    .fil0 {fill:black}
   ]]>
  </style>
 </defs>
 <g id="Layer_x0020_1">
  <metadata id="CorelCorpID_0Corel-Layer"/>
  <g id="_413155408">
   <g>
    <g>
     <path class="fil0" d="M6710 6561l-6309 0c-220,0 -398,-180 -398,-400l0 -3846c0,-221 179,-400 398,-400l6310 0c220,0 399,179 399,400l0 3846c0,219 -179,400 -400,400zm-6309 -4453c-112,0 -204,92 -204,206l0 3845c0,114 92,206 204,206l6310 0c113,0 204,-92 204,-206l0 -3845c0,-114 -91,-206 -204,-206l-6310 0z"/>
    </g>
    <g>
     <g>
      <path class="fil0" d="M5449 2849l-2181 0c-54,0 -97,-43 -97,-97 0,-54 43,-97 97,-97l2183 0c54,0 97,43 97,97 0,54 -45,97 -99,97z"/>
     </g>
     <g>
      <path class="fil0" d="M6396 2849l-422 0c-54,0 -97,-43 -97,-97 0,-54 43,-97 97,-97l422 0c54,0 97,43 97,97 0,54 -44,97 -97,97z"/>
     </g>
     <g>
      <path class="fil0" d="M5449 3681l-2181 0c-54,0 -97,-43 -97,-97 0,-54 43,-97 97,-97l2183 0c54,0 97,43 97,97 0,54 -45,97 -99,97z"/>
     </g>
     <g>
      <path class="fil0" d="M6396 3681l-422 0c-54,0 -97,-43 -97,-97 0,-54 43,-97 97,-97l422 0c54,0 97,43 97,97 0,54 -44,97 -97,97z"/>
     </g>
     <g>
      <path class="fil0" d="M5449 4513l-2181 0c-54,0 -97,-43 -97,-97 0,-55 43,-98 97,-98l2183 0c54,0 97,43 97,98 0,54 -45,97 -99,97z"/>
     </g>
     <g>
      <path class="fil0" d="M6396 4513l-422 0c-54,0 -97,-43 -97,-97 0,-55 43,-98 97,-98l422 0c54,0 97,43 97,98 0,54 -44,97 -97,97z"/>
     </g>
    </g>
    <g>
     <path class="fil0" d="M3657 5355l-2949 0c-54,0 -97,-43 -97,-97 0,-54 43,-97 97,-97l2949 0c54,0 97,43 97,97 0,54 -44,97 -97,97z"/>
    </g>
    <g>
     <path class="fil0" d="M6403 5355l-2077 0c-54,0 -97,-43 -97,-97 0,-54 43,-97 97,-97l2077 0c54,0 97,43 97,97 0,54 -43,97 -97,97z"/>
    </g>
    <g>
     <path class="fil0" d="M3657 6007l-2949 0c-54,0 -97,-43 -97,-98 0,-54 43,-97 97,-97l2949 0c54,0 97,43 97,97 0,55 -44,98 -97,98z"/>
    </g>
    <g>
     <path class="fil0" d="M6403 6007l-2077 0c-54,0 -97,-43 -97,-98 0,-54 43,-97 97,-97l2077 0c54,0 97,43 97,97 0,55 -43,98 -97,98z"/>
    </g>
    <g>
     <g>
      <path class="fil0" d="M1727 4700c-616,0 -1116,-501 -1116,-1116 0,-615 501,-1116 1116,-1116 615,0 1116,501 1116,1116 0,615 -501,1116 -1116,1116zm0 -2039c-508,0 -922,413 -922,922 0,508 414,921 922,921 508,0 922,-413 922,-921 0,-509 -414,-922 -922,-922z"/>
     </g>
     <g>
      <path class="fil0" d="M1719 3695c-229,0 -415,-186 -415,-415 0,-229 186,-415 415,-415 229,0 415,186 415,415 0,229 -186,415 -415,415zm0 -636c-122,0 -221,99 -221,221 0,122 99,221 221,221 122,0 221,-99 221,-221 0,-122 -99,-221 -221,-221z"/>
     </g>
     <g>
      <path class="fil0" d="M2520 4321c-27,0 -52,-10 -71,-30 -118,-127 -267,-220 -432,-271 -180,118 -416,118 -595,0 -161,48 -307,139 -425,261 -38,39 -99,40 -138,3 -38,-38 -40,-99 -2,-138 154,-159 347,-272 559,-326 29,-7 61,-1 85,18 126,101 309,101 436,0 23,-19 55,-26 84,-18 218,57 414,173 568,337 36,39 35,100 -4,138 -18,18 -42,26 -65,26z"/>
     </g>
    </g>
    <g>
     <path class="fil0" d="M7013 2411c-55,0 -98,-43 -98,-97l0 -1142c0,-52 -19,-97 -54,-126 -33,-28 -78,-39 -126,-31l-6244 1029c-13,38 -49,64 -91,64 -110,0 -203,90 -204,200 -2,54 -46,96 -100,94 -54,-1 -96,-45 -95,-100 6,-211 170,-402 375,-437l6327 -1044c105,-18 207,8 285,75 77,67 122,167 122,275l0 1141c0,56 -43,99 -97,99z"/>
    </g>
    <g>
     <path class="fil0" d="M2060 1276c-47,0 -87,-33 -95,-81 -9,-53 27,-103 80,-111l3222 -532c53,-9 103,28 111,80 9,53 -27,103 -80,111l-3222 532c-6,0 -10,1 -16,1z"/>
    </g>
   </g>
  </g>
 </g>
</svg>
